<svg version="1.1" xmlns="http://www.w3.org/2000/svg" width="48" height="45" viewBox="0 0 48 48">
<path d="M23.8406 20.8025C28.1448 20.8025 31.4925 17.3071 31.4925 13.0173C31.4925 8.72759 27.9854 5.39111 23.6812 5.39111C19.377 5.39111 16.0293 8.88647 16.0293 13.0173C16.0293 17.3071 19.5364 20.8025 23.8406 20.8025ZM23.6812 8.56871C23.8406 8.56871 23.8406 8.56871 23.6812 8.56871C26.2318 8.56871 28.3042 10.6342 28.3042 13.1762C28.3042 15.7183 26.2318 17.6249 23.6812 17.6249C21.1305 17.6249 19.2176 15.5594 19.2176 13.1762C19.2176 10.6342 21.2899 8.56871 23.6812 8.56871Z" fill="#000"></path>
<path d="M47.4339 19.8487C44.405 17.1477 40.4197 15.7178 36.2749 15.8767H34.9996C34.6808 17.1477 34.2025 18.2599 33.5648 19.2132C34.5213 19.0543 35.3184 19.0543 36.2749 19.0543C39.3038 18.8954 42.3327 19.8487 44.7239 21.5964V33.0357H47.9122V20.3253L47.4339 19.8487Z" fill="#000"></path>
<path d="M32.6084 5.70826C33.4055 3.8017 35.6373 2.84842 37.7097 3.64282C39.6226 4.43722 40.5791 6.66154 39.782 8.72697C39.1444 10.1569 37.7097 11.1102 36.2749 11.1102C35.9561 11.1102 35.4779 11.1102 35.159 10.9513C35.3184 11.7457 35.3184 12.5401 35.3184 13.1756V14.1289C35.6373 14.1289 35.9561 14.2878 36.2749 14.2878C40.2603 14.2878 43.4486 11.1102 43.4486 7.29706C43.4486 3.32506 40.2603 0.147461 36.4343 0.147461C33.8837 0.147461 31.6519 1.4185 30.3766 3.64282C31.1737 4.11946 31.9707 4.75498 32.6084 5.70826Z" fill="#000"></path>
<path d="M14.4351 19.3724C13.7975 18.4191 13.3192 17.3069 13.0004 16.0359H11.7251C7.58031 15.877 3.59495 17.3069 0.566073 19.849L0.0878296 20.3257V33.0361H3.27612V21.5967C5.82675 19.849 8.69621 18.8957 11.7251 19.0546C12.6816 19.0546 13.6381 19.2135 14.4351 19.3724Z" fill="#000"></path>
<path d="M11.7251 14.1295C12.044 14.1295 12.3628 14.1295 12.6816 13.9706V13.0174C12.6816 12.223 12.6816 11.4286 12.841 10.793C12.5222 10.9519 12.044 10.9519 11.7251 10.9519C9.65273 10.9519 7.89917 9.20424 7.89917 7.1388C7.89917 5.07336 9.65273 3.32568 11.7251 3.32568C13.3193 3.32568 14.754 4.27896 15.3917 5.70888C16.0293 4.91448 16.9858 4.12008 17.7829 3.48456C15.7105 0.148085 11.4063 -0.964074 8.05859 1.10136C4.71088 3.1668 3.59498 7.45656 5.66737 10.793C6.94269 12.8585 9.17449 14.1295 11.7251 14.1295Z" fill="#000"></path>
<path d="M36.9126 29.3817L36.5938 28.9051C33.4055 25.4097 28.9419 23.3443 24.1594 23.5032C19.377 23.3443 14.754 25.4097 11.5657 28.9051L11.2469 29.3817V41.4566C11.2469 42.8865 12.3628 44.1576 13.9569 44.1576H34.362C35.7967 44.1576 37.072 42.8865 37.072 41.4566V29.3817H36.9126ZM33.7243 40.98H14.4351V30.4939C16.9858 27.9518 20.4929 26.6808 24.1594 26.6808C27.6666 26.5219 31.1737 27.9518 33.7243 30.4939V40.98Z" fill="#000"></path>
</svg>